<svg width="34" height="42" viewBox="0 0 34 42" fill="none" xmlns="http://www.w3.org/2000/svg">
<path d="M28.1006 26.0049C28.6049 26.056 28.999 26.4822 28.999 27C28.999 27.0062 28.9982 27.0124 28.998 27.0186V30H29.998V32H30.998V33H31.998V40H2V33H3V32H4V30H5V27C5 26.4477 5.44772 26 6 26H27.999L28.1006 26.0049Z" fill="#FD8D2E"/>
<ellipse cx="11.4994" cy="34.5" rx="2.49986" ry="2.5" fill="#F66812"/>
<ellipse cx="19.9989" cy="30" rx="1.99988" ry="2" fill="#F66812"/>
<ellipse cx="15.4992" cy="21.5" rx="1.49991" ry="1.5" fill="#FD8D2E"/>
<path d="M27.1016 25.0049C27.6054 25.0565 27.999 25.4825 27.999 26C27.999 26.5175 27.6054 26.9435 27.1016 26.9951L26.999 27H23.999C23.4467 27 22.999 26.5523 22.999 26C22.999 25.4477 23.4467 25 23.999 25H26.999L27.1016 25.0049ZM24.1016 19.0049C24.6055 19.0564 24.999 19.4824 24.999 20C24.999 20.5176 24.6055 20.9436 24.1016 20.9951L23.999 21H20.999C20.4467 21 19.999 20.5523 19.999 20C19.999 19.4477 20.4467 19 20.999 19H23.999L24.1016 19.0049ZM20.1016 13.0049C20.6056 13.0563 20.999 13.4824 20.999 14C20.999 14.5176 20.6056 14.9437 20.1016 14.9951L19.999 15H17.999C17.4467 15 16.999 14.5523 16.999 14C16.999 13.4477 17.4467 13 17.999 13H19.999L20.1016 13.0049ZM20.1016 7.00488C20.6056 7.05627 20.999 7.48236 20.999 8C20.999 8.51764 20.6056 8.94373 20.1016 8.99512L19.999 9H17.999C17.4467 9 16.999 8.55228 16.999 8C16.999 7.44772 17.4467 7 17.999 7H19.999L20.1016 7.00488Z" fill="#B9C9D0"/>
<path d="M24.1014 0.00488281C24.6056 0.0561381 24.9988 0.482267 24.9988 1C24.9988 1.51773 24.6056 1.94386 24.1014 1.99512L23.9988 2H21.9998V13L22.0057 13.1885C22.033 13.6265 22.1558 14.054 22.367 14.4404L33.3855 34.5996H33.3865C33.8031 35.361 34.0137 36.2182 33.9988 37.0859C33.9838 37.9538 33.7432 38.8031 33.3006 39.5498C32.8579 40.2964 32.2286 40.9151 31.4744 41.3447C30.8143 41.7207 30.0783 41.9404 29.323 41.9893L28.9988 42H5.00078C4.13276 42.0002 3.27947 41.7743 2.52519 41.3447C1.77097 40.9151 1.14168 40.2964 0.699021 39.5498C0.256366 38.8031 0.0157644 37.9538 0.000778756 37.0859C-0.0141384 36.2182 0.196503 35.361 0.613083 34.5996H0.61406L11.6326 14.4404L11.7176 14.2725C11.8769 13.9317 11.9705 13.5639 11.9939 13.1885L11.9998 13V2H9.9998C9.44769 1.9998 8.9998 1.55216 8.9998 1C8.9998 0.447839 9.44769 0.000199923 9.9998 0H23.9988L24.1014 0.00488281ZM13.9998 2V13L13.99 13.3135C13.951 13.939 13.7945 14.5514 13.5291 15.1191L13.3875 15.3994L2.36797 35.5596C2.11799 36.0165 1.99082 36.531 1.9998 37.0518C2.00879 37.5725 2.15411 38.0823 2.41972 38.5303C2.68532 38.9781 3.06301 39.3488 3.51543 39.6064C3.96782 39.8641 4.47921 40 4.9998 40H28.9998L29.1941 39.9941C29.6471 39.9648 30.0882 39.8319 30.4842 39.6064C30.9366 39.3488 31.3143 38.9781 31.5799 38.5303C31.8455 38.0823 31.9908 37.5725 31.9998 37.0518C32.0077 36.5962 31.911 36.1459 31.7195 35.7344L31.6316 35.5596L20.6121 15.3994C20.2602 14.7555 20.0552 14.0433 20.0096 13.3135L19.9998 13V2H13.9998Z" fill="#647E8C"/>
</svg>
