<svg width="36" height="44" viewBox="0 0 36 44" fill="none" xmlns="http://www.w3.org/2000/svg">
<rect width="36" height="44" fill="#6ABF7B"/>
<path d="M29.1006 27.0049C29.6049 27.056 29.999 27.4822 29.999 28C29.999 28.0062 29.9982 28.0124 29.998 28.0186V31H30.998V33H31.998V34H32.998V41H3V34H4V33H5V31H6V28C6 27.4477 6.44772 27 7 27H28.999L29.1006 27.0049Z" fill="#FD8D2E"/>
<ellipse cx="12.4994" cy="35.5" rx="2.49986" ry="2.5" fill="#F66812"/>
<ellipse cx="20.9989" cy="31" rx="1.99988" ry="2" fill="#F66812"/>
<ellipse cx="16.4992" cy="22.5" rx="1.49991" ry="1.5" fill="#FD8D2E"/>
<path d="M28.1016 26.0049C28.6054 26.0565 28.999 26.4825 28.999 27C28.999 27.5175 28.6054 27.9435 28.1016 27.9951L27.999 28H24.999C24.4467 28 23.999 27.5523 23.999 27C23.999 26.4477 24.4467 26 24.999 26H27.999L28.1016 26.0049ZM25.1016 20.0049C25.6055 20.0564 25.999 20.4824 25.999 21C25.999 21.5176 25.6055 21.9436 25.1016 21.9951L24.999 22H21.999C21.4467 22 20.999 21.5523 20.999 21C20.999 20.4477 21.4467 20 21.999 20H24.999L25.1016 20.0049ZM21.1016 14.0049C21.6056 14.0563 21.999 14.4824 21.999 15C21.999 15.5176 21.6056 15.9437 21.1016 15.9951L20.999 16H18.999C18.4467 16 17.999 15.5523 17.999 15C17.999 14.4477 18.4467 14 18.999 14H20.999L21.1016 14.0049ZM21.1016 8.00488C21.6056 8.05627 21.999 8.48236 21.999 9C21.999 9.51764 21.6056 9.94373 21.1016 9.99512L20.999 10H18.999C18.4467 10 17.999 9.55228 17.999 9C17.999 8.44772 18.4467 8 18.999 8H20.999L21.1016 8.00488Z" fill="#B9C9D0"/>
<path d="M25.1014 1.00488C25.6056 1.05614 25.9988 1.48227 25.9988 2C25.9988 2.51773 25.6056 2.94386 25.1014 2.99512L24.9988 3H22.9998V14L23.0057 14.1885C23.033 14.6265 23.1558 15.054 23.367 15.4404L34.3855 35.5996H34.3865C34.8031 36.361 35.0137 37.2182 34.9988 38.0859C34.9838 38.9538 34.7432 39.8031 34.3006 40.5498C33.8579 41.2964 33.2286 41.9151 32.4744 42.3447C31.8143 42.7207 31.0783 42.9404 30.323 42.9893L29.9988 43H6.00078C5.13276 43.0002 4.27947 42.7743 3.52519 42.3447C2.77097 41.9151 2.14168 41.2964 1.69902 40.5498C1.25637 39.8031 1.01576 38.9538 1.00078 38.0859C0.985862 37.2182 1.1965 36.361 1.61308 35.5996H1.61406L12.6326 15.4404L12.7176 15.2725C12.8769 14.9317 12.9705 14.5639 12.9939 14.1885L12.9998 14V3H10.9998C10.4477 2.9998 9.9998 2.55216 9.9998 2C9.9998 1.44784 10.4477 1.0002 10.9998 1H24.9988L25.1014 1.00488ZM14.9998 3V14L14.99 14.3135C14.951 14.939 14.7945 15.5514 14.5291 16.1191L14.3875 16.3994L3.36797 36.5596C3.11799 37.0165 2.99082 37.531 2.9998 38.0518C3.00879 38.5725 3.15411 39.0823 3.41972 39.5303C3.68532 39.9781 4.06301 40.3488 4.51543 40.6064C4.96782 40.8641 5.47921 41 5.9998 41H29.9998L30.1941 40.9941C30.6471 40.9648 31.0882 40.8319 31.4842 40.6064C31.9366 40.3488 32.3143 39.9781 32.5799 39.5303C32.8455 39.0823 32.9908 38.5725 32.9998 38.0518C33.0077 37.5962 32.911 37.1459 32.7195 36.7344L32.6316 36.5596L21.6121 16.3994C21.2602 15.7555 21.0552 15.0433 21.0096 14.3135L20.9998 14V3H14.9998Z" fill="#647E8C"/>
<path d="M29.1006 27.0049C29.6049 27.056 29.999 27.4822 29.999 28C29.999 28.0062 29.9982 28.0124 29.998 28.0186V31H30.998V33H31.998V34H32.998V41H3V34H4V33H5V31H6V28C6 27.4477 6.44772 27 7 27H28.999L29.1006 27.0049Z" fill="#FD8D2E"/>
<ellipse cx="12.4994" cy="35.5" rx="2.49986" ry="2.5" fill="#F66812"/>
<ellipse cx="20.9989" cy="31" rx="1.99988" ry="2" fill="#F66812"/>
<ellipse cx="16.4992" cy="22.5" rx="1.49991" ry="1.5" fill="#FD8D2E"/>
<path d="M28.1016 26.0049C28.6054 26.0565 28.999 26.4825 28.999 27C28.999 27.5175 28.6054 27.9435 28.1016 27.9951L27.999 28H24.999C24.4467 28 23.999 27.5523 23.999 27C23.999 26.4477 24.4467 26 24.999 26H27.999L28.1016 26.0049ZM25.1016 20.0049C25.6055 20.0564 25.999 20.4824 25.999 21C25.999 21.5176 25.6055 21.9436 25.1016 21.9951L24.999 22H21.999C21.4467 22 20.999 21.5523 20.999 21C20.999 20.4477 21.4467 20 21.999 20H24.999L25.1016 20.0049ZM21.1016 14.0049C21.6056 14.0563 21.999 14.4824 21.999 15C21.999 15.5176 21.6056 15.9437 21.1016 15.9951L20.999 16H18.999C18.4467 16 17.999 15.5523 17.999 15C17.999 14.4477 18.4467 14 18.999 14H20.999L21.1016 14.0049ZM21.1016 8.00488C21.6056 8.05627 21.999 8.48236 21.999 9C21.999 9.51764 21.6056 9.94373 21.1016 9.99512L20.999 10H18.999C18.4467 10 17.999 9.55228 17.999 9C17.999 8.44772 18.4467 8 18.999 8H20.999L21.1016 8.00488Z" fill="#B9C9D0"/>
<path d="M25.1014 1.00488C25.6056 1.05614 25.9988 1.48227 25.9988 2C25.9988 2.51773 25.6056 2.94386 25.1014 2.99512L24.9988 3H22.9998V14L23.0057 14.1885C23.033 14.6265 23.1558 15.054 23.367 15.4404L34.3855 35.5996H34.3865C34.8031 36.361 35.0137 37.2182 34.9988 38.0859C34.9838 38.9538 34.7432 39.8031 34.3006 40.5498C33.8579 41.2964 33.2286 41.9151 32.4744 42.3447C31.8143 42.7207 31.0783 42.9404 30.323 42.9893L29.9988 43H6.00078C5.13276 43.0002 4.27947 42.7743 3.52519 42.3447C2.77097 41.9151 2.14168 41.2964 1.69902 40.5498C1.25637 39.8031 1.01576 38.9538 1.00078 38.0859C0.985862 37.2182 1.1965 36.361 1.61308 35.5996H1.61406L12.6326 15.4404L12.7176 15.2725C12.8769 14.9317 12.9705 14.5639 12.9939 14.1885L12.9998 14V3H10.9998C10.4477 2.9998 9.9998 2.55216 9.9998 2C9.9998 1.44784 10.4477 1.0002 10.9998 1H24.9988L25.1014 1.00488ZM14.9998 3V14L14.99 14.3135C14.951 14.939 14.7945 15.5514 14.5291 16.1191L14.3875 16.3994L3.36797 36.5596C3.11799 37.0165 2.99082 37.531 2.9998 38.0518C3.00879 38.5725 3.15411 39.0823 3.41972 39.5303C3.68532 39.9781 4.06301 40.3488 4.51543 40.6064C4.96782 40.8641 5.47921 41 5.9998 41H29.9998L30.1941 40.9941C30.6471 40.9648 31.0882 40.8319 31.4842 40.6064C31.9366 40.3488 32.3143 39.9781 32.5799 39.5303C32.8455 39.0823 32.9908 38.5725 32.9998 38.0518C33.0077 37.5962 32.911 37.1459 32.7195 36.7344L32.6316 36.5596L21.6121 16.3994C21.2602 15.7555 21.0552 15.0433 21.0096 14.3135L20.9998 14V3H14.9998Z" fill="#647E8C"/>
</svg>
