<svg width="72" height="72" viewBox="0 0 72 72" fill="none" xmlns="http://www.w3.org/2000/svg">
<rect width="72" height="72" fill="#6ABF7B"/>
<path d="M47.1006 41.0049C47.6049 41.056 47.999 41.4822 47.999 42C47.999 42.0062 47.9982 42.0124 47.998 42.0186V45H48.998V47H49.998V48H50.998V55H21V48H22V47H23V45H24V42C24 41.4477 24.4477 41 25 41H46.999L47.1006 41.0049Z" fill="#FD8D2E"/>
<ellipse cx="30.4994" cy="49.5" rx="2.49986" ry="2.5" fill="#F66812"/>
<ellipse cx="38.9989" cy="45" rx="1.99988" ry="2" fill="#F66812"/>
<ellipse cx="34.4992" cy="36.5" rx="1.49991" ry="1.5" fill="#FD8D2E"/>
<path d="M46.1016 40.0049C46.6054 40.0565 46.999 40.4825 46.999 41C46.999 41.5175 46.6054 41.9435 46.1016 41.9951L45.999 42H42.999C42.4467 42 41.999 41.5523 41.999 41C41.999 40.4477 42.4467 40 42.999 40H45.999L46.1016 40.0049ZM43.1016 34.0049C43.6055 34.0564 43.999 34.4824 43.999 35C43.999 35.5176 43.6055 35.9436 43.1016 35.9951L42.999 36H39.999C39.4467 36 38.999 35.5523 38.999 35C38.999 34.4477 39.4467 34 39.999 34H42.999L43.1016 34.0049ZM39.1016 28.0049C39.6056 28.0563 39.999 28.4824 39.999 29C39.999 29.5176 39.6056 29.9437 39.1016 29.9951L38.999 30H36.999C36.4467 30 35.999 29.5523 35.999 29C35.999 28.4477 36.4467 28 36.999 28H38.999L39.1016 28.0049ZM39.1016 22.0049C39.6056 22.0563 39.999 22.4824 39.999 23C39.999 23.5176 39.6056 23.9437 39.1016 23.9951L38.999 24H36.999C36.4467 24 35.999 23.5523 35.999 23C35.999 22.4477 36.4467 22 36.999 22H38.999L39.1016 22.0049Z" fill="#B9C9D0"/>
<path d="M43.1014 15.0049C43.6056 15.0561 43.9988 15.4823 43.9988 16C43.9988 16.5177 43.6056 16.9439 43.1014 16.9951L42.9988 17H40.9998V28L41.0057 28.1885C41.033 28.6265 41.1558 29.054 41.367 29.4404L52.3855 49.5996H52.3865C52.8031 50.361 53.0137 51.2182 52.9988 52.0859C52.9838 52.9538 52.7432 53.8031 52.3006 54.5498C51.8579 55.2964 51.2286 55.9151 50.4744 56.3447C49.8143 56.7207 49.0783 56.9404 48.323 56.9893L47.9988 57H24.0008C23.1328 57.0002 22.2795 56.7743 21.5252 56.3447C20.771 55.9151 20.1417 55.2964 19.699 54.5498C19.2564 53.8031 19.0158 52.9538 19.0008 52.0859C18.9859 51.2182 19.1965 50.361 19.6131 49.5996H19.6141L30.6326 29.4404L30.7176 29.2725C30.8769 28.9317 30.9705 28.5639 30.9939 28.1885L30.9998 28V17H28.9998C28.4477 16.9998 27.9998 16.5522 27.9998 16C27.9998 15.4478 28.4477 15.0002 28.9998 15H42.9988L43.1014 15.0049ZM32.9998 17V28L32.99 28.3135C32.951 28.939 32.7945 29.5514 32.5291 30.1191L32.3875 30.3994L21.368 50.5596C21.118 51.0165 20.9908 51.531 20.9998 52.0518C21.0088 52.5725 21.1541 53.0823 21.4197 53.5303C21.6853 53.9781 22.063 54.3488 22.5154 54.6064C22.9678 54.8641 23.4792 55 23.9998 55H47.9998L48.1941 54.9941C48.6471 54.9648 49.0882 54.8319 49.4842 54.6064C49.9366 54.3488 50.3143 53.9781 50.5799 53.5303C50.8455 53.0823 50.9908 52.5725 50.9998 52.0518C51.0077 51.5962 50.911 51.1459 50.7195 50.7344L50.6316 50.5596L39.6121 30.3994C39.2602 29.7555 39.0552 29.0433 39.0096 28.3135L38.9998 28V17H32.9998Z" fill="#647E8C"/>
</svg>
